<mxfile host="Electron" modified="2023-05-31T17:00:18.509Z" agent="Mozilla/5.0 (Windows NT 10.0; Win64; x64) AppleWebKit/537.36 (KHTML, like Gecko) draw.io/21.2.8 Chrome/112.0.5615.165 Electron/24.2.0 Safari/537.36" etag="8oPDzWZ0hg4woe_Jqgm9" version="21.2.8" type="device">
  <diagram id="auQ4tK3FNU_SihqYigeP" name="Page-1">
    <mxGraphModel dx="2394" dy="1277" grid="1" gridSize="10" guides="1" tooltips="1" connect="1" arrows="1" fold="1" page="0" pageScale="1" pageWidth="827" pageHeight="1169" background="none" math="0" shadow="0">
      <root>
        <mxCell id="0" />
        <mxCell id="1" parent="0" />
        <mxCell id="node8" value="&lt;p style=&quot;margin: 4px 0px 0px; text-align: center; line-height: 120%;&quot;&gt;&lt;b&gt;APIArticle&lt;/b&gt;&lt;/p&gt;&lt;hr style=&quot;line-height: 120%;&quot; size=&quot;1&quot;&gt;&lt;p style=&quot;margin: 0px 0px 0px 4px; line-height: 120%;&quot;&gt;- webUrl: URL&lt;br&gt;- isHosted: boolean&lt;br&gt;- wordcount: int&lt;br&gt;- sectionName: String&lt;br&gt;- pillarId: String&lt;br&gt;- sectionId: String&lt;br&gt;- apiUrl: URL&lt;br&gt;- Id: String&lt;br&gt;- webPublicationDate: String&lt;br&gt;- type: String&lt;br&gt;- webTitle: String&lt;br&gt;- pillarName: String&lt;/p&gt;&lt;hr style=&quot;line-height: 120%;&quot; size=&quot;1&quot;&gt;&lt;p style=&quot;border-color: var(--border-color); margin: 0px 0px 0px 4px; line-height: 120%;&quot;&gt;+ APIArticle():&lt;br style=&quot;border-color: var(--border-color);&quot;&gt;+ APIArticle(String, String, String, String, String, String,&amp;nbsp;String,&lt;/p&gt;&lt;p style=&quot;border-color: var(--border-color); margin: 0px 0px 0px 4px; line-height: 120%;&quot;&gt;&lt;span style=&quot;border-color: var(--border-color); background-color: initial;&quot;&gt;&lt;span style=&quot;border-color: var(--border-color);&quot;&gt; &lt;/span&gt;&lt;span style=&quot;border-color: var(--border-color);&quot;&gt; &lt;/span&gt;&amp;nbsp; &amp;nbsp; String, URL, URL, boolean, String, String, String):&lt;/span&gt;&lt;/p&gt;&lt;p style=&quot;border-color: var(--border-color); margin: 0px 0px 0px 4px; line-height: 120%;&quot;&gt;&lt;span style=&quot;border-color: var(--border-color); background-color: initial;&quot;&gt;+ setId(String): void&lt;/span&gt;&lt;/p&gt;&lt;p style=&quot;border-color: var(--border-color); margin: 0px 0px 0px 4px; line-height: 120%;&quot;&gt;&lt;span style=&quot;border-color: var(--border-color); background-color: initial;&quot;&gt;+ setType(String): void&lt;/span&gt;&lt;/p&gt;&lt;p style=&quot;border-color: var(--border-color); margin: 0px 0px 0px 4px; line-height: 120%;&quot;&gt;&lt;span style=&quot;border-color: var(--border-color); background-color: initial;&quot;&gt;+ setSectionId(String): void&lt;/span&gt;&lt;/p&gt;&lt;p style=&quot;border-color: var(--border-color); margin: 0px 0px 0px 4px; line-height: 120%;&quot;&gt;&lt;span style=&quot;border-color: var(--border-color); background-color: initial;&quot;&gt;+ setSectionName(String): void&lt;/span&gt;&lt;/p&gt;&lt;p style=&quot;border-color: var(--border-color); margin: 0px 0px 0px 4px; line-height: 120%;&quot;&gt;&lt;span style=&quot;border-color: var(--border-color); background-color: initial;&quot;&gt;+ setWebPubblicationDate(String): void&lt;/span&gt;&lt;/p&gt;&lt;p style=&quot;border-color: var(--border-color); margin: 0px 0px 0px 4px; line-height: 120%;&quot;&gt;&lt;span style=&quot;border-color: var(--border-color); background-color: initial;&quot;&gt;+ setWebTitle(String): void&lt;/span&gt;&lt;/p&gt;&lt;p style=&quot;border-color: var(--border-color); margin: 0px 0px 0px 4px; line-height: 120%;&quot;&gt;&lt;span style=&quot;border-color: var(--border-color); background-color: initial;&quot;&gt;+ setWebUrl(String): void&lt;/span&gt;&lt;/p&gt;&lt;p style=&quot;border-color: var(--border-color); margin: 0px 0px 0px 4px; line-height: 120%;&quot;&gt;&lt;span style=&quot;border-color: var(--border-color); background-color: initial;&quot;&gt;+ setApiUrl(String): void&lt;/span&gt;&lt;/p&gt;&lt;p style=&quot;border-color: var(--border-color); margin: 0px 0px 0px 4px; line-height: 120%;&quot;&gt;&lt;span style=&quot;border-color: var(--border-color); background-color: initial;&quot;&gt;+ setHosted(boolean): void&lt;/span&gt;&lt;/p&gt;&lt;p style=&quot;border-color: var(--border-color); margin: 0px 0px 0px 4px; line-height: 120%;&quot;&gt;&lt;span style=&quot;border-color: var(--border-color); background-color: initial;&quot;&gt;+ setPillarId(String): void&lt;/span&gt;&lt;/p&gt;&lt;p style=&quot;border-color: var(--border-color); margin: 0px 0px 0px 4px; line-height: 120%;&quot;&gt;&lt;span style=&quot;border-color: var(--border-color); background-color: initial;&quot;&gt;+ setPillarName(String): void&lt;/span&gt;&lt;/p&gt;&lt;p style=&quot;border-color: var(--border-color); margin: 0px 0px 0px 4px; line-height: 120%;&quot;&gt;&lt;span style=&quot;border-color: var(--border-color); background-color: initial;&quot;&gt;+ setHead(String): void&lt;/span&gt;&lt;/p&gt;&lt;p style=&quot;border-color: var(--border-color); margin: 0px 0px 0px 4px; line-height: 120%;&quot;&gt;&lt;span style=&quot;border-color: var(--border-color); background-color: initial;&quot;&gt;+ setBody(String): void&lt;/span&gt;&lt;/p&gt;&lt;p style=&quot;border-color: var(--border-color); margin: 0px 0px 0px 4px; line-height: 120%;&quot;&gt;&lt;span style=&quot;border-color: var(--border-color); background-color: initial;&quot;&gt;+ setWordcount(int): void&lt;/span&gt;&lt;/p&gt;&lt;p style=&quot;border-color: var(--border-color); margin: 0px 0px 0px 4px; line-height: 120%;&quot;&gt;+ getId(): String&lt;/p&gt;&lt;p style=&quot;border-color: var(--border-color); margin: 0px 0px 0px 4px; line-height: 120%;&quot;&gt;&lt;span style=&quot;border-color: var(--border-color); background-color: initial;&quot;&gt;+ getType(): String&lt;/span&gt;&lt;/p&gt;&lt;p style=&quot;border-color: var(--border-color); margin: 0px 0px 0px 4px; line-height: 120%;&quot;&gt;&lt;span style=&quot;border-color: var(--border-color); background-color: initial;&quot;&gt;+ getSectionId(): String&lt;/span&gt;&lt;/p&gt;&lt;p style=&quot;border-color: var(--border-color); margin: 0px 0px 0px 4px; line-height: 120%;&quot;&gt;&lt;span style=&quot;border-color: var(--border-color); background-color: initial;&quot;&gt;+ getSectionName(): String&lt;/span&gt;&lt;/p&gt;&lt;p style=&quot;border-color: var(--border-color); margin: 0px 0px 0px 4px; line-height: 120%;&quot;&gt;&lt;span style=&quot;border-color: var(--border-color); background-color: initial;&quot;&gt;+ getWebPubblicationDate(): String&lt;/span&gt;&lt;/p&gt;&lt;p style=&quot;border-color: var(--border-color); margin: 0px 0px 0px 4px; line-height: 120%;&quot;&gt;&lt;span style=&quot;border-color: var(--border-color); background-color: initial;&quot;&gt;+ getWebTitle(): String&lt;/span&gt;&lt;/p&gt;&lt;p style=&quot;border-color: var(--border-color); margin: 0px 0px 0px 4px; line-height: 120%;&quot;&gt;&lt;span style=&quot;border-color: var(--border-color); background-color: initial;&quot;&gt;+ getWebUrl(): URL&lt;/span&gt;&lt;/p&gt;&lt;p style=&quot;border-color: var(--border-color); margin: 0px 0px 0px 4px; line-height: 120%;&quot;&gt;&lt;span style=&quot;border-color: var(--border-color); background-color: initial;&quot;&gt;+ getApiUrl(): URL&lt;/span&gt;&lt;/p&gt;&lt;p style=&quot;border-color: var(--border-color); margin: 0px 0px 0px 4px; line-height: 120%;&quot;&gt;&lt;span style=&quot;border-color: var(--border-color); background-color: initial;&quot;&gt;+ getHosted(boolean): boolean&lt;/span&gt;&lt;/p&gt;&lt;p style=&quot;border-color: var(--border-color); margin: 0px 0px 0px 4px; line-height: 120%;&quot;&gt;&lt;span style=&quot;border-color: var(--border-color); background-color: initial;&quot;&gt;+ getPillarId(): String&lt;/span&gt;&lt;/p&gt;&lt;p style=&quot;border-color: var(--border-color); margin: 0px 0px 0px 4px; line-height: 120%;&quot;&gt;&lt;span style=&quot;border-color: var(--border-color); background-color: initial;&quot;&gt;+ getPillarName(Sting): String&lt;/span&gt;&lt;/p&gt;&lt;p style=&quot;border-color: var(--border-color); margin: 0px 0px 0px 4px; line-height: 120%;&quot;&gt;&lt;span style=&quot;border-color: var(--border-color); background-color: initial;&quot;&gt;+ getHead(): String&lt;/span&gt;&lt;/p&gt;&lt;p style=&quot;border-color: var(--border-color); margin: 0px 0px 0px 4px; line-height: 120%;&quot;&gt;&lt;span style=&quot;border-color: var(--border-color); background-color: initial;&quot;&gt;+ getBody(): String&lt;/span&gt;&lt;/p&gt;&lt;p style=&quot;border-color: var(--border-color); margin: 0px 0px 0px 4px; line-height: 120%;&quot;&gt;&lt;span style=&quot;border-color: var(--border-color); background-color: initial;&quot;&gt;&lt;/span&gt;&lt;/p&gt;&lt;p style=&quot;border-color: var(--border-color); margin: 0px 0px 0px 4px; line-height: 120%;&quot;&gt;&lt;span style=&quot;border-color: var(--border-color); background-color: initial;&quot;&gt;+ getWordcount(): int&lt;/span&gt;&lt;/p&gt;&lt;p style=&quot;border-color: var(--border-color); margin: 0px 0px 0px 4px; line-height: 120%;&quot;&gt;&lt;span style=&quot;border-color: var(--border-color); background-color: initial;&quot;&gt;&lt;br&gt;&lt;/span&gt;&lt;/p&gt;" style="verticalAlign=top;align=left;overflow=fill;fontSize=14;fontFamily=Helvetica;html=1;rounded=0;shadow=0;comic=0;labelBackgroundColor=none;strokeWidth=1;" parent="1" vertex="1">
          <mxGeometry x="-230" y="220" width="400" height="780" as="geometry" />
        </mxCell>
        <mxCell id="node1" value="&lt;p style=&quot;margin: 4px 0px 0px; text-align: center; line-height: 120%;&quot;&gt;&lt;b&gt;APIParser&lt;/b&gt;&lt;/p&gt;&lt;hr style=&quot;line-height: 120%;&quot; size=&quot;1&quot;&gt;&lt;p style=&quot;margin: 0px 0px 0px 4px; line-height: 120%;&quot;&gt;&lt;/p&gt;&lt;p style=&quot;margin: 0px 0px 0px 4px; line-height: 120%;&quot;&gt;- total: int&lt;br&gt;- pages: int&lt;br&gt;- userTier: String&lt;br&gt;- orderBy: String&lt;br&gt;- pageSize: int&lt;br&gt;- articles: List&amp;lt;APIArticle&amp;gt;&lt;br&gt;- JSONString: String&lt;br&gt;- status: String&lt;br&gt;- startIndex: int&lt;br&gt;- currentPage: int&lt;/p&gt;&lt;hr style=&quot;line-height: 120%;&quot; size=&quot;1&quot;&gt;&lt;p style=&quot;margin: 0px 0px 0px 4px; line-height: 120%;&quot;&gt;+ APIParser(String):&lt;br&gt;&lt;/p&gt;&lt;div style=&quot;line-height: 120%;&quot;&gt;+&amp;nbsp;getJSONString(): String&lt;/div&gt;&lt;div style=&quot;line-height: 120%;&quot;&gt;+&amp;nbsp;getStatus&lt;span style=&quot;background-color: initial;&quot;&gt;(): String&lt;/span&gt;&lt;/div&gt;&lt;div style=&quot;line-height: 120%;&quot;&gt;+&amp;nbsp;getTotal&lt;span style=&quot;background-color: initial;&quot;&gt;(): int&lt;/span&gt;&lt;br&gt;&lt;/div&gt;&lt;div style=&quot;line-height: 120%;&quot;&gt;+&amp;nbsp;getStartIndex&lt;span style=&quot;background-color: initial;&quot;&gt;():i int&lt;/span&gt;&lt;br&gt;&lt;/div&gt;&lt;div style=&quot;line-height: 120%;&quot;&gt;&lt;div style=&quot;border-color: var(--border-color); line-height: 120%;&quot;&gt;+&amp;nbsp;getPageSize&lt;span style=&quot;background-color: initial;&quot;&gt;()&lt;/span&gt;: int&lt;br&gt;&lt;/div&gt;&lt;div style=&quot;border-color: var(--border-color); line-height: 120%;&quot;&gt;&lt;div style=&quot;border-color: var(--border-color); line-height: 120%;&quot;&gt;+&amp;nbsp;getUserTier&lt;span style=&quot;background-color: initial;&quot;&gt;(): String&lt;/span&gt;&lt;br&gt;&lt;/div&gt;&lt;div style=&quot;border-color: var(--border-color); line-height: 120%;&quot;&gt;&lt;div style=&quot;border-color: var(--border-color); line-height: 120%;&quot;&gt;+&amp;nbsp;getCurrentPage&lt;span style=&quot;background-color: initial;&quot;&gt;()&lt;/span&gt;: int&lt;br&gt;&lt;/div&gt;&lt;div style=&quot;border-color: var(--border-color); line-height: 120%;&quot;&gt;&lt;div style=&quot;border-color: var(--border-color); line-height: 120%;&quot;&gt;+&amp;nbsp;getOrderBy&lt;span style=&quot;background-color: initial;&quot;&gt;(): String&lt;/span&gt;&lt;br&gt;&lt;/div&gt;&lt;div style=&quot;border-color: var(--border-color); line-height: 120%;&quot;&gt;&lt;div style=&quot;border-color: var(--border-color); line-height: 120%;&quot;&gt;+&amp;nbsp;getPages&lt;span style=&quot;background-color: initial;&quot;&gt;(): int&lt;/span&gt;&lt;br&gt;&lt;/div&gt;&lt;div style=&quot;border-color: var(--border-color); line-height: 120%;&quot;&gt;&lt;div style=&quot;border-color: var(--border-color); line-height: 120%;&quot;&gt;+&amp;nbsp;getArticles&lt;span style=&quot;background-color: initial;&quot;&gt;():&amp;nbsp;&lt;/span&gt;List&amp;lt;APIArticle&amp;gt;&lt;br&gt;&lt;/div&gt;&lt;div style=&quot;border-color: var(--border-color); line-height: 120%;&quot;&gt;&lt;br style=&quot;border-color: var(--border-color);&quot;&gt;&lt;/div&gt;&lt;/div&gt;&lt;/div&gt;&lt;/div&gt;&lt;div style=&quot;border-color: var(--border-color); line-height: 120%;&quot;&gt;&lt;br style=&quot;border-color: var(--border-color);&quot;&gt;&lt;/div&gt;&lt;/div&gt;&lt;/div&gt;&lt;/div&gt;&lt;div style=&quot;line-height: 120%;&quot;&gt;&lt;br&gt;&lt;/div&gt;" style="verticalAlign=top;align=left;overflow=fill;fontSize=14;fontFamily=Helvetica;html=1;rounded=0;shadow=0;comic=0;labelBackgroundColor=none;strokeWidth=1;" parent="1" vertex="1">
          <mxGeometry x="-540" y="150" width="208" height="405" as="geometry" />
        </mxCell>
        <mxCell id="node3" value="&lt;p style=&quot;margin: 4px 0px 0px; text-align: center; line-height: 120%;&quot;&gt;&lt;b&gt;APISource&lt;/b&gt;&lt;/p&gt;&lt;hr style=&quot;line-height: 120%;&quot; size=&quot;1&quot;&gt;&lt;p style=&quot;margin: 0px 0px 0px 4px; line-height: 120%;&quot;&gt;&lt;/p&gt;&lt;p style=&quot;margin: 0px 0px 0px 4px; line-height: 120%;&quot;&gt;- client: HTTPClient&lt;/p&gt;&lt;p style=&quot;margin: 0px 0px 0px 4px; line-height: 120%;&quot;&gt;-&amp;nbsp;htmlParser:&amp;nbsp;HTMLParser&lt;/p&gt;&lt;p style=&quot;margin: 0px 0px 0px 4px; line-height: 120%;&quot;&gt;-&amp;nbsp;urlSetter:&amp;nbsp;URLSetter&lt;/p&gt;&lt;p style=&quot;margin: 0px 0px 0px 4px; line-height: 120%;&quot;&gt;-&amp;nbsp;jsonParser:&amp;nbsp;APIParser&lt;/p&gt;&lt;p style=&quot;margin: 0px 0px 0px 4px; line-height: 120%;&quot;&gt;-&amp;nbsp;maxArticle: int&lt;/p&gt;&lt;p style=&quot;margin: 0px 0px 0px 4px; line-height: 120%;&quot;&gt;-&amp;nbsp;INITIALCOUNT: int&lt;/p&gt;&lt;p style=&quot;margin: 0px 0px 0px 4px; line-height: 120%;&quot;&gt;-&amp;nbsp; PAGESIZE: int&lt;/p&gt;&lt;p style=&quot;margin: 0px 0px 0px 4px; line-height: 120%;&quot;&gt;- articles: List&amp;lt;APIArticle&amp;gt;&lt;/p&gt;&lt;hr style=&quot;line-height: 120%;&quot; size=&quot;1&quot;&gt;&lt;p style=&quot;margin: 0px 0px 0px 4px; line-height: 120%;&quot;&gt;&lt;span style=&quot;background-color: initial;&quot;&gt;+ APISource(String, String, String[], String[], int):&lt;/span&gt;&lt;/p&gt;&lt;div style=&quot;line-height: 120%;&quot;&gt;&amp;nbsp;- readArticle(): void&lt;/div&gt;" style="verticalAlign=top;align=left;overflow=fill;fontSize=14;fontFamily=Helvetica;html=1;rounded=0;shadow=0;comic=0;labelBackgroundColor=none;strokeWidth=1;" parent="1" vertex="1">
          <mxGeometry x="-143" y="-80" width="313" height="230" as="geometry" />
        </mxCell>
        <mxCell id="node12" value="&lt;p style=&quot;margin: 4px 0px 0px; text-align: center; line-height: 120%;&quot;&gt;&lt;b&gt;Article&lt;/b&gt;&lt;/p&gt;&lt;hr style=&quot;line-height: 120%;&quot; size=&quot;1&quot;&gt;&lt;p style=&quot;margin: 0px 0px 0px 4px; line-height: 120%;&quot;&gt;- head: String&lt;br&gt;- body: String&lt;/p&gt;&lt;hr style=&quot;line-height: 120%;&quot; size=&quot;1&quot;&gt;&lt;p style=&quot;margin: 0px 0px 0px 4px; line-height: 120%;&quot;&gt;&lt;/p&gt;+ Article(String, String):&lt;br style=&quot;border-color: var(--border-color);&quot;&gt;+ Article():&lt;br&gt;+ getHead(): String&lt;br&gt;+ getBody(): String&lt;br&gt;+ setHead(String): void&lt;br&gt;+ setBody(String): void" style="verticalAlign=top;align=left;overflow=fill;fontSize=14;fontFamily=Helvetica;html=1;rounded=0;shadow=0;comic=0;labelBackgroundColor=none;strokeWidth=1;" parent="1" vertex="1">
          <mxGeometry x="100" y="1100" width="164" height="190" as="geometry" />
        </mxCell>
        <mxCell id="node6" value="&lt;p style=&quot;margin: 4px 0px 0px; text-align: center; line-height: 120%;&quot;&gt;&lt;b&gt;CSVArticle&lt;/b&gt;&lt;/p&gt;&lt;hr style=&quot;line-height: 120%;&quot; size=&quot;1&quot;&gt;&lt;p style=&quot;margin: 0px 0px 0px 4px; line-height: 120%;&quot;&gt;&lt;/p&gt;&lt;p style=&quot;margin: 0px 0px 0px 4px; line-height: 120%;&quot;&gt;- URL: URL&lt;br&gt;- sourceSet: String&lt;br&gt;- Date: String&lt;br&gt;- source: String&lt;br&gt;- identifier: String&lt;/p&gt;&lt;hr style=&quot;line-height: 120%;&quot; size=&quot;1&quot;&gt;&lt;p style=&quot;margin: 0px 0px 0px 4px; line-height: 120%;&quot;&gt;&lt;/p&gt;+ CSVArticle(String, String, String, URL, String, String, String):&lt;br style=&quot;border-color: var(--border-color);&quot;&gt;+ CSVArticle():&lt;br&gt;+&amp;nbsp;setIdentifier(String): void&lt;br&gt;+&amp;nbsp;setURL(URL): void&lt;br&gt;+&amp;nbsp;setDate(String): void&lt;br&gt;+&amp;nbsp;setSourceSet(String): void&lt;br&gt;+&amp;nbsp;setSource(String): void&lt;br&gt;+&amp;nbsp;setBody(String): void&lt;br&gt;+&amp;nbsp;setHead(String): void&lt;br&gt;+ getIdentifier(): String&lt;br style=&quot;border-color: var(--border-color);&quot;&gt;+ getURL(): URL&lt;br style=&quot;border-color: var(--border-color);&quot;&gt;+ getDate(): String&lt;br style=&quot;border-color: var(--border-color);&quot;&gt;+ getSourceSet(): String&lt;br style=&quot;border-color: var(--border-color);&quot;&gt;+ getSource(): String&lt;br style=&quot;border-color: var(--border-color);&quot;&gt;+ getBody(): String&lt;br style=&quot;border-color: var(--border-color);&quot;&gt;+ getHead(): String" style="verticalAlign=top;align=left;overflow=fill;fontSize=14;fontFamily=Helvetica;html=1;rounded=0;shadow=0;comic=0;labelBackgroundColor=none;strokeWidth=1;" parent="1" vertex="1">
          <mxGeometry x="200" y="590" width="400" height="410" as="geometry" />
        </mxCell>
        <mxCell id="node4" value="&lt;p style=&quot;margin: 4px 0px 0px; text-align: center; line-height: 120%;&quot;&gt;&lt;b&gt;CSVParser&lt;/b&gt;&lt;/p&gt;&lt;hr style=&quot;line-height: 120%;&quot; size=&quot;1&quot;&gt;&lt;p style=&quot;margin: 0px 0px 0px 4px; line-height: 120%;&quot;&gt;&lt;/p&gt;&lt;p style=&quot;margin: 0px 0px 0px 4px; line-height: 120%;&quot;&gt;- articles: List&amp;lt;CSVArticle&amp;gt;&lt;/p&gt;&lt;p style=&quot;margin: 0px 0px 0px 4px; line-height: 120%;&quot;&gt;- reader: CSVReader&lt;/p&gt;&lt;hr style=&quot;line-height: 120%;&quot; size=&quot;1&quot;&gt;&lt;p style=&quot;margin: 0px 0px 0px 4px; line-height: 120%;&quot;&gt;+ CSVParser(String):&lt;/p&gt;&lt;p style=&quot;margin: 0px 0px 0px 4px; line-height: 120%;&quot;&gt;- readArticles(): void&lt;/p&gt;&lt;p style=&quot;margin: 0px 0px 0px 4px; line-height: 120%;&quot;&gt;+ getArticles(): List&amp;lt;CSVArticle&amp;gt;&lt;/p&gt;&lt;p style=&quot;margin: 0px 0px 0px 4px; line-height: 120%;&quot;&gt;&lt;br&gt;&lt;/p&gt;" style="verticalAlign=top;align=left;overflow=fill;fontSize=14;fontFamily=Helvetica;html=1;rounded=0;shadow=0;comic=0;labelBackgroundColor=none;strokeWidth=1;" parent="1" vertex="1">
          <mxGeometry x="480" y="-240" width="213" height="142" as="geometry" />
        </mxCell>
        <mxCell id="node10" value="&lt;p style=&quot;margin: 4px 0px 0px; text-align: center; line-height: 120%;&quot;&gt;&lt;b&gt;CSVSource&lt;/b&gt;&lt;/p&gt;&lt;hr style=&quot;line-height: 120%;&quot; size=&quot;1&quot;&gt;&lt;p style=&quot;margin: 0px 0px 0px 4px; line-height: 120%;&quot;&gt;&lt;/p&gt;&lt;p style=&quot;margin: 0px 0px 0px 4px; line-height: 120%;&quot;&gt;- parser: CSVParser&lt;/p&gt;&lt;p style=&quot;margin: 0px 0px 0px 4px; line-height: 120%;&quot;&gt;- articles: List&amp;lt;CSVArticle&amp;gt;&lt;/p&gt;&lt;hr style=&quot;line-height: 120%;&quot; size=&quot;1&quot;&gt;&lt;p style=&quot;margin: 0px 0px 0px 4px; line-height: 120%;&quot;&gt;+ CSVSource(String):&lt;/p&gt;" style="verticalAlign=top;align=left;overflow=fill;fontSize=14;fontFamily=Helvetica;html=1;rounded=0;shadow=0;comic=0;labelBackgroundColor=none;strokeWidth=1;" parent="1" vertex="1">
          <mxGeometry x="220" y="-30" width="177" height="108" as="geometry" />
        </mxCell>
        <mxCell id="node9" value="&lt;p style=&quot;margin: 4px 0px 0px; text-align: center; line-height: 120%;&quot;&gt;&lt;b&gt;HTTPClient&lt;/b&gt;&lt;/p&gt;&lt;hr style=&quot;line-height: 120%;&quot; size=&quot;1&quot;&gt;&lt;p style=&quot;margin: 0px 0px 0px 4px; line-height: 120%;&quot;&gt;&lt;/p&gt;&lt;p style=&quot;margin: 0px 0px 0px 4px; line-height: 120%;&quot;&gt;- client:&amp;nbsp;CloseableHttpClient&lt;/p&gt;&lt;p style=&quot;margin: 0px 0px 0px 4px; line-height: 120%;&quot;&gt;- config:&amp;nbsp;RequestConfig&lt;/p&gt;&lt;p style=&quot;margin: 0px 0px 0px 4px; line-height: 120%;&quot;&gt;- request:&amp;nbsp;HttpGet&lt;/p&gt;&lt;p style=&quot;margin: 0px 0px 0px 4px; line-height: 120%;&quot;&gt;- response:&amp;nbsp;CloseableHttpResponse&lt;/p&gt;&lt;p style=&quot;margin: 0px 0px 0px 4px; line-height: 120%;&quot;&gt;- connected: boolean&lt;/p&gt;&lt;p style=&quot;margin: 0px 0px 0px 4px; line-height: 120%;&quot;&gt;- TIMEOUT: int&lt;/p&gt;&lt;p style=&quot;margin: 0px 0px 0px 4px; line-height: 120%;&quot;&gt;-&amp;nbsp;CORRECT_STATUS: int&lt;/p&gt;&lt;hr style=&quot;line-height: 120%;&quot; size=&quot;1&quot;&gt;&lt;p style=&quot;margin: 0px 0px 0px 4px; line-height: 120%;&quot;&gt;+ HTTPClient(URL):&lt;/p&gt;&lt;p style=&quot;margin: 0px 0px 0px 4px; line-height: 120%;&quot;&gt;+&amp;nbsp;getHttpString(): String&lt;/p&gt;&lt;p style=&quot;margin: 0px 0px 0px 4px; line-height: 120%;&quot;&gt;+&amp;nbsp;setUrl(URL): void&lt;/p&gt;&lt;p style=&quot;margin: 0px 0px 0px 4px; line-height: 120%;&quot;&gt;+&amp;nbsp;closeConnection(): void&lt;/p&gt;" style="verticalAlign=top;align=left;overflow=fill;fontSize=14;fontFamily=Helvetica;html=1;rounded=0;shadow=0;comic=0;labelBackgroundColor=none;strokeWidth=1;" parent="1" vertex="1">
          <mxGeometry x="-500" y="-300" width="240" height="240" as="geometry" />
        </mxCell>
        <mxCell id="node2" value="&lt;p style=&quot;margin: 4px 0px 0px; text-align: center; line-height: 120%;&quot;&gt;&lt;b&gt;TreeStorage&lt;/b&gt;&lt;/p&gt;&lt;hr style=&quot;line-height: 120%;&quot; size=&quot;1&quot;&gt;&lt;p style=&quot;margin: 0px 0px 0px 4px; line-height: 120%;&quot;&gt;- tokens:&amp;nbsp;HashMap&amp;lt;String, Integer&amp;gt;&lt;/p&gt;&lt;hr style=&quot;line-height: 120%;&quot; size=&quot;1&quot;&gt;&lt;p style=&quot;margin: 0px 0px 0px 4px; line-height: 120%;&quot;&gt;+ TreeStorage():&lt;/p&gt;&lt;p style=&quot;margin: 0px 0px 0px 4px; line-height: 120%;&quot;&gt;+ removeTokens(): void&lt;br&gt;+ printTokens(): void&lt;br&gt;+ printFrequency(String): void&lt;br&gt;&lt;/p&gt;" style="verticalAlign=top;align=left;overflow=fill;fontSize=14;fontFamily=Helvetica;html=1;rounded=0;shadow=0;comic=0;labelBackgroundColor=none;strokeWidth=1;" parent="1" vertex="1">
          <mxGeometry x="800" y="140" width="381" height="140" as="geometry" />
        </mxCell>
        <mxCell id="node16" value="&lt;p style=&quot;margin: 4px 0px 0px; text-align: center; line-height: 120%;&quot;&gt;&lt;b&gt;URLSetter&lt;/b&gt;&lt;/p&gt;&lt;hr style=&quot;line-height: 120%;&quot; size=&quot;1&quot;&gt;&lt;p style=&quot;margin: 0px 0px 0px 4px; line-height: 120%;&quot;&gt;&lt;/p&gt;&lt;p style=&quot;margin: 0px 0px 0px 4px; line-height: 120%;&quot;&gt;- URL: URL&lt;/p&gt;&lt;p style=&quot;margin: 0px 0px 0px 4px; line-height: 120%;&quot;&gt;- APIKey: String&lt;/p&gt;&lt;p style=&quot;margin: 0px 0px 0px 4px; line-height: 120%;&quot;&gt;- queries: String[]&lt;/p&gt;&lt;p style=&quot;margin: 0px 0px 0px 4px; line-height: 120%;&quot;&gt;- tags: String[]&lt;/p&gt;&lt;p style=&quot;margin: 0px 0px 0px 4px; line-height: 120%;&quot;&gt;- baseURL: String&lt;/p&gt;&lt;p style=&quot;margin: 0px 0px 0px 4px; line-height: 120%;&quot;&gt;- page: int&lt;/p&gt;&lt;p style=&quot;margin: 0px 0px 0px 4px; line-height: 120%;&quot;&gt;- pageSize: int&lt;/p&gt;&lt;hr style=&quot;line-height: 120%;&quot; size=&quot;1&quot;&gt;&lt;p style=&quot;margin: 0px 0px 0px 4px; line-height: 120%;&quot;&gt;+ URLSetter(String, String, int, int, String[], String[]):&lt;/p&gt;&lt;p style=&quot;margin: 0px 0px 0px 4px; line-height: 120%;&quot;&gt;- buildUrl(): void&lt;br&gt;+ incrementPage(): void&lt;/p&gt;&lt;p style=&quot;margin: 0px 0px 0px 4px; line-height: 120%;&quot;&gt;+ getURL(): URL&lt;/p&gt;&lt;p style=&quot;margin: 0px 0px 0px 4px; line-height: 120%;&quot;&gt;&lt;br&gt;&lt;/p&gt;" style="verticalAlign=top;align=left;overflow=fill;fontSize=14;fontFamily=Helvetica;html=1;rounded=0;shadow=0;comic=0;labelBackgroundColor=none;strokeWidth=1;" parent="1" vertex="1">
          <mxGeometry x="-930" y="78" width="335" height="240" as="geometry" />
        </mxCell>
        <mxCell id="edge0" value="" style="html=1;rounded=1;edgeStyle=orthogonalEdgeStyle;dashed=0;startArrow=none;endArrow=block;endSize=12;strokeColor=#000082;exitX=0.5;exitY=1;exitDx=0;exitDy=0;entryX=0.5;entryY=0;entryDx=0;entryDy=0;" parent="1" source="node8" target="node12" edge="1">
          <mxGeometry width="50" height="50" relative="1" as="geometry">
            <Array as="points">
              <mxPoint x="-30" y="1070" />
              <mxPoint x="182" y="1070" />
            </Array>
            <mxPoint x="210" y="190" as="targetPoint" />
          </mxGeometry>
        </mxCell>
        <mxCell id="edge4" value="" style="html=1;rounded=1;edgeStyle=orthogonalEdgeStyle;dashed=1;startArrow=none;endArrow=block;endSize=12;strokeColor=#008200;exitX=0.500;exitY=0.000;exitDx=0;exitDy=0;entryX=0.5;entryY=1;entryDx=0;entryDy=0;" parent="1" source="node3" target="1nAkwuaW9sIehE2Wec23-9" edge="1">
          <mxGeometry width="50" height="50" relative="1" as="geometry">
            <Array as="points">
              <mxPoint x="10" y="-80" />
              <mxPoint x="10" y="-95" />
              <mxPoint x="200" y="-95" />
            </Array>
            <mxPoint x="260" y="-130" as="targetPoint" />
          </mxGeometry>
        </mxCell>
        <mxCell id="edge1" value="" style="html=1;rounded=1;edgeStyle=orthogonalEdgeStyle;dashed=0;startArrow=none;endArrow=block;endSize=12;strokeColor=#000082;exitX=0.5;exitY=1;exitDx=0;exitDy=0;entryX=0.5;entryY=0;entryDx=0;entryDy=0;" parent="1" source="node6" target="node12" edge="1">
          <mxGeometry width="50" height="50" relative="1" as="geometry">
            <Array as="points">
              <mxPoint x="400" y="1070" />
              <mxPoint x="182" y="1070" />
            </Array>
            <mxPoint x="190" y="1030" as="targetPoint" />
          </mxGeometry>
        </mxCell>
        <mxCell id="edge3" value="" style="html=1;rounded=1;edgeStyle=orthogonalEdgeStyle;dashed=1;startArrow=none;endArrow=block;endSize=12;strokeColor=#008200;exitX=0.500;exitY=0.000;exitDx=0;exitDy=0;entryX=0.5;entryY=1;entryDx=0;entryDy=0;" parent="1" source="node10" target="1nAkwuaW9sIehE2Wec23-9" edge="1">
          <mxGeometry width="50" height="50" relative="1" as="geometry">
            <Array as="points">
              <mxPoint x="308" y="-95" />
              <mxPoint x="200" y="-95" />
            </Array>
          </mxGeometry>
        </mxCell>
        <mxCell id="edge2" value="" style="html=1;rounded=1;edgeStyle=orthogonalEdgeStyle;dashed=1;startArrow=none;endArrow=block;endSize=12;strokeColor=#008200;exitX=0.500;exitY=0.000;exitDx=0;exitDy=0;entryX=0.5;entryY=1;entryDx=0;entryDy=0;" parent="1" source="node2" target="1nAkwuaW9sIehE2Wec23-11" edge="1">
          <mxGeometry width="50" height="50" relative="1" as="geometry">
            <Array as="points" />
            <mxPoint x="1041" y="120" as="targetPoint" />
          </mxGeometry>
        </mxCell>
        <mxCell id="1nAkwuaW9sIehE2Wec23-1" value="&lt;p style=&quot;margin: 4px 0px 0px; text-align: center; line-height: 120%;&quot;&gt;&lt;b&gt;HTMLParser&lt;/b&gt;&lt;/p&gt;&lt;hr style=&quot;line-height: 120%;&quot; size=&quot;1&quot;&gt;&lt;p style=&quot;margin: 0px 0px 0px 4px; line-height: 120%;&quot;&gt;&lt;/p&gt;&lt;p style=&quot;margin: 0px 0px 0px 4px; line-height: 120%;&quot;&gt;&amp;nbsp;&lt;/p&gt;&lt;hr style=&quot;line-height: 120%;&quot; size=&quot;1&quot;&gt;&lt;p style=&quot;margin: 0px 0px 0px 4px; line-height: 120%;&quot;&gt;+ HTMLParser():&lt;br style=&quot;border-color: var(--border-color);&quot;&gt;&lt;/p&gt;&lt;p style=&quot;margin: 0px 0px 0px 4px; line-height: 120%;&quot;&gt;+ parse(APIArticle): void&lt;br&gt;&lt;/p&gt;" style="verticalAlign=top;align=left;overflow=fill;fontSize=14;fontFamily=Helvetica;html=1;rounded=0;shadow=0;comic=0;labelBackgroundColor=none;strokeWidth=1;" parent="1" vertex="1">
          <mxGeometry x="-808" y="-70" width="213" height="110" as="geometry" />
        </mxCell>
        <mxCell id="1nAkwuaW9sIehE2Wec23-3" value="&lt;p style=&quot;margin: 4px 0px 0px; text-align: center; line-height: 120%;&quot;&gt;&lt;b&gt;Deserializer&lt;/b&gt;&lt;/p&gt;&lt;hr style=&quot;line-height: 120%;&quot; size=&quot;1&quot;&gt;&lt;p style=&quot;margin: 0px 0px 0px 4px; line-height: 120%;&quot;&gt;&lt;/p&gt;&lt;p style=&quot;margin: 0px 0px 0px 4px; line-height: 120%;&quot;&gt;- JSONMapper: ObjectMapper&lt;/p&gt;&lt;hr style=&quot;line-height: 120%;&quot; size=&quot;1&quot;&gt;&lt;p style=&quot;margin: 0px 0px 0px 4px; line-height: 120%;&quot;&gt;+ Deserializer():&lt;br style=&quot;border-color: var(--border-color);&quot;&gt;&lt;/p&gt;&lt;p style=&quot;margin: 0px 0px 0px 4px; line-height: 120%;&quot;&gt;+&amp;nbsp;deserialize(String): Article[]&lt;/p&gt;" style="verticalAlign=top;align=left;overflow=fill;fontSize=14;fontFamily=Helvetica;html=1;rounded=0;shadow=0;comic=0;labelBackgroundColor=none;strokeWidth=1;" parent="1" vertex="1">
          <mxGeometry x="861" y="730" width="213" height="110" as="geometry" />
        </mxCell>
        <mxCell id="1nAkwuaW9sIehE2Wec23-4" value="&lt;p style=&quot;margin: 4px 0px 0px; text-align: center; line-height: 120%;&quot;&gt;&lt;b&gt;Serializer&lt;/b&gt;&lt;/p&gt;&lt;hr style=&quot;line-height: 120%;&quot; size=&quot;1&quot;&gt;&lt;p style=&quot;margin: 0px 0px 0px 4px; line-height: 120%;&quot;&gt;&lt;/p&gt;&lt;p style=&quot;margin: 0px 0px 0px 4px; line-height: 120%;&quot;&gt;- JSONMapper: ObjectMapper&lt;/p&gt;&lt;hr style=&quot;line-height: 120%;&quot; size=&quot;1&quot;&gt;&lt;p style=&quot;margin: 0px 0px 0px 4px; line-height: 120%;&quot;&gt;+ Serializer():&lt;br style=&quot;border-color: var(--border-color);&quot;&gt;&lt;/p&gt;&lt;p style=&quot;margin: 0px 0px 0px 4px; line-height: 120%;&quot;&gt;+ serialize(Article[], String): void&lt;/p&gt;" style="verticalAlign=top;align=left;overflow=fill;fontSize=14;fontFamily=Helvetica;html=1;rounded=0;shadow=0;comic=0;labelBackgroundColor=none;strokeWidth=1;" parent="1" vertex="1">
          <mxGeometry x="861" y="890" width="213" height="110" as="geometry" />
        </mxCell>
        <mxCell id="1nAkwuaW9sIehE2Wec23-5" value="&lt;p style=&quot;margin: 4px 0px 0px; text-align: center; line-height: 120%;&quot;&gt;&lt;b&gt;Tokenizer&lt;/b&gt;&lt;/p&gt;&lt;hr style=&quot;line-height: 120%;&quot; size=&quot;1&quot;&gt;&lt;p style=&quot;margin: 0px 0px 0px 4px; line-height: 120%;&quot;&gt;&lt;/p&gt;&lt;p style=&quot;margin: 0px 0px 0px 4px; line-height: 120%;&quot;&gt;- str: String&lt;/p&gt;&lt;p style=&quot;margin: 0px 0px 0px 4px; line-height: 120%;&quot;&gt;- document: CoreDocument&lt;/p&gt;&lt;p style=&quot;margin: 0px 0px 0px 4px; line-height: 120%;&quot;&gt;- pipeline: StanfordCoreNLP&lt;/p&gt;&lt;p style=&quot;margin: 0px 0px 0px 4px; line-height: 120%;&quot;&gt;- checks: boolean&lt;/p&gt;&lt;p style=&quot;margin: 0px 0px 0px 4px; line-height: 120%;&quot;&gt;- commonWords: List&amp;lt;String&amp;gt;&lt;/p&gt;&lt;p style=&quot;margin: 0px 0px 0px 4px; line-height: 120%;&quot;&gt;- storage: TokensStorage&lt;/p&gt;&lt;p style=&quot;margin: 0px 0px 0px 4px; line-height: 120%;&quot;&gt;- FILENAME: String&lt;/p&gt;&lt;p style=&quot;margin: 0px 0px 0px 4px; line-height: 120%;&quot;&gt;- REGEX: String&lt;/p&gt;&lt;hr style=&quot;line-height: 120%;&quot; size=&quot;1&quot;&gt;&lt;p style=&quot;margin: 0px 0px 0px 4px; line-height: 120%;&quot;&gt;+ Tokenizer(String, boolean, TokensStorage):&lt;br style=&quot;border-color: var(--border-color);&quot;&gt;&lt;/p&gt;&lt;p style=&quot;margin: 0px 0px 0px 4px; line-height: 120%;&quot;&gt;+&amp;nbsp;enableCheck(): void&lt;/p&gt;&lt;p style=&quot;margin: 0px 0px 0px 4px; line-height: 120%;&quot;&gt;+&amp;nbsp;disableCheck(): void&lt;/p&gt;&lt;p style=&quot;margin: 0px 0px 0px 4px; line-height: 120%;&quot;&gt;+ tokenize(String): void&lt;/p&gt;" style="verticalAlign=top;align=left;overflow=fill;fontSize=14;fontFamily=Helvetica;html=1;rounded=0;shadow=0;comic=0;labelBackgroundColor=none;strokeWidth=1;" parent="1" vertex="1">
          <mxGeometry x="845.5" y="360" width="290" height="260" as="geometry" />
        </mxCell>
        <mxCell id="1nAkwuaW9sIehE2Wec23-7" value="&lt;p style=&quot;margin: 4px 0px 0px; text-align: center; line-height: 120%;&quot;&gt;&lt;b&gt;ImpossibleConnection&lt;/b&gt;&lt;/p&gt;&lt;hr style=&quot;line-height: 120%;&quot; size=&quot;1&quot;&gt;&lt;p style=&quot;margin: 0px 0px 0px 4px; line-height: 120%;&quot;&gt;&lt;/p&gt;&lt;p style=&quot;margin: 0px 0px 0px 4px; line-height: 120%;&quot;&gt;&amp;nbsp;&lt;/p&gt;&lt;hr style=&quot;line-height: 120%;&quot; size=&quot;1&quot;&gt;&lt;p style=&quot;margin: 0px 0px 0px 4px; line-height: 120%;&quot;&gt;&lt;span style=&quot;background-color: initial;&quot;&gt;+ ImpossibleConnection():&lt;/span&gt;&lt;br&gt;&lt;/p&gt;" style="verticalAlign=top;align=left;overflow=fill;fontSize=14;fontFamily=Helvetica;html=1;rounded=0;shadow=0;comic=0;labelBackgroundColor=none;strokeWidth=1;" parent="1" vertex="1">
          <mxGeometry x="-770" y="-280" width="213" height="90" as="geometry" />
        </mxCell>
        <mxCell id="1nAkwuaW9sIehE2Wec23-9" value="&lt;div style=&quot;text-align: center; line-height: 120%;&quot;&gt;&lt;i style=&quot;background-color: initial; border-color: var(--border-color);&quot;&gt;&amp;lt;&amp;lt;interface&amp;gt;&amp;gt;&lt;/i&gt;&lt;br&gt;&lt;/div&gt;&lt;b style=&quot;border-color: var(--border-color);&quot;&gt;&lt;div style=&quot;text-align: center; line-height: 120%;&quot;&gt;&lt;b style=&quot;background-color: initial; border-color: var(--border-color);&quot;&gt;ArticleSource&lt;/b&gt;&lt;/div&gt;&lt;/b&gt;&lt;hr style=&quot;line-height: 120%;&quot; size=&quot;1&quot;&gt;&lt;p style=&quot;margin: 0px 0px 0px 4px; line-height: 120%;&quot;&gt;&lt;/p&gt;&lt;p style=&quot;margin: 0px 0px 0px 4px; line-height: 120%;&quot;&gt;&amp;nbsp;&lt;/p&gt;&lt;hr style=&quot;line-height: 120%;&quot; size=&quot;1&quot;&gt;&lt;p style=&quot;margin: 0px 0px 0px 4px; line-height: 120%;&quot;&gt;getArticles(): List&amp;lt;? extends Article&amp;gt;&lt;/p&gt;" style="verticalAlign=top;align=left;overflow=fill;fontSize=14;fontFamily=Helvetica;html=1;rounded=0;shadow=0;comic=0;labelBackgroundColor=none;strokeWidth=1;" parent="1" vertex="1">
          <mxGeometry x="80" y="-320" width="240" height="110" as="geometry" />
        </mxCell>
        <mxCell id="1nAkwuaW9sIehE2Wec23-11" value="&lt;div style=&quot;text-align: center; line-height: 120%;&quot;&gt;&lt;i style=&quot;background-color: initial; border-color: var(--border-color);&quot;&gt;&amp;lt;&amp;lt;interface&amp;gt;&amp;gt;&lt;/i&gt;&lt;br&gt;&lt;/div&gt;&lt;b style=&quot;border-color: var(--border-color);&quot;&gt;&lt;div style=&quot;text-align: center; line-height: 120%;&quot;&gt;&lt;b style=&quot;background-color: initial; border-color: var(--border-color);&quot;&gt;&lt;b style=&quot;border-color: var(--border-color);&quot;&gt;TokensStorage&lt;/b&gt;&lt;/b&gt;&lt;/div&gt;&lt;/b&gt;&lt;hr style=&quot;line-height: 120%;&quot; size=&quot;1&quot;&gt;&lt;p style=&quot;margin: 0px 0px 0px 4px; line-height: 120%;&quot;&gt;&lt;/p&gt;&lt;p style=&quot;margin: 0px 0px 0px 4px; line-height: 120%;&quot;&gt;&amp;nbsp;&lt;/p&gt;&lt;hr style=&quot;line-height: 120%;&quot; size=&quot;1&quot;&gt;&lt;p style=&quot;margin: 0px 0px 0px 4px; line-height: 120%;&quot;&gt;+ enterTokens(List&amp;lt;String&amp;gt;): void&lt;br style=&quot;border-color: var(--border-color);&quot;&gt;+ getOrderedTokens(int): Set&amp;lt;Entry&amp;lt;Integer, List&amp;lt;String&amp;gt;&amp;gt;&amp;gt;&lt;br&gt;&lt;/p&gt;" style="verticalAlign=top;align=left;overflow=fill;fontSize=14;fontFamily=Helvetica;html=1;rounded=0;shadow=0;comic=0;labelBackgroundColor=none;strokeWidth=1;" parent="1" vertex="1">
          <mxGeometry x="801" y="-40" width="380" height="120" as="geometry" />
        </mxCell>
        <mxCell id="Rqpb-CLD3I6wGEN1D-v1-1" value="" style="endArrow=diamondThin;endFill=1;endSize=24;html=1;rounded=0;exitX=0.5;exitY=1;exitDx=0;exitDy=0;entryX=0.5;entryY=0;entryDx=0;entryDy=0;" parent="1" source="node2" target="1nAkwuaW9sIehE2Wec23-5" edge="1">
          <mxGeometry width="160" relative="1" as="geometry">
            <mxPoint x="741" y="670" as="sourcePoint" />
            <mxPoint x="901" y="670" as="targetPoint" />
          </mxGeometry>
        </mxCell>
        <mxCell id="Rqpb-CLD3I6wGEN1D-v1-2" value="" style="endArrow=none;html=1;rounded=0;exitX=0.5;exitY=1;exitDx=0;exitDy=0;entryX=0.5;entryY=0;entryDx=0;entryDy=0;" parent="1" source="node3" target="node8" edge="1">
          <mxGeometry relative="1" as="geometry">
            <mxPoint x="10" y="210" as="sourcePoint" />
            <mxPoint x="170" y="210" as="targetPoint" />
          </mxGeometry>
        </mxCell>
        <mxCell id="Rqpb-CLD3I6wGEN1D-v1-3" value="0..*" style="resizable=0;html=1;whiteSpace=wrap;align=right;verticalAlign=bottom;" parent="Rqpb-CLD3I6wGEN1D-v1-2" connectable="0" vertex="1">
          <mxGeometry x="1" relative="1" as="geometry">
            <mxPoint as="offset" />
          </mxGeometry>
        </mxCell>
        <mxCell id="Rqpb-CLD3I6wGEN1D-v1-4" value="" style="endArrow=none;html=1;rounded=0;exitX=0.5;exitY=1;exitDx=0;exitDy=0;entryX=0.5;entryY=0;entryDx=0;entryDy=0;" parent="1" source="node10" target="node6" edge="1">
          <mxGeometry relative="1" as="geometry">
            <mxPoint x="120" y="350" as="sourcePoint" />
            <mxPoint x="280" y="350" as="targetPoint" />
          </mxGeometry>
        </mxCell>
        <mxCell id="Rqpb-CLD3I6wGEN1D-v1-5" value="0..*" style="resizable=0;html=1;whiteSpace=wrap;align=right;verticalAlign=bottom;" parent="Rqpb-CLD3I6wGEN1D-v1-4" connectable="0" vertex="1">
          <mxGeometry x="1" relative="1" as="geometry">
            <mxPoint x="-10" y="-10" as="offset" />
          </mxGeometry>
        </mxCell>
        <mxCell id="Rqpb-CLD3I6wGEN1D-v1-6" value="" style="endArrow=diamondThin;endFill=1;endSize=24;html=1;rounded=0;exitX=0.5;exitY=1;exitDx=0;exitDy=0;entryX=1;entryY=0.5;entryDx=0;entryDy=0;" parent="1" source="node4" target="node10" edge="1">
          <mxGeometry width="160" relative="1" as="geometry">
            <mxPoint x="830" y="320" as="sourcePoint" />
            <mxPoint x="990" y="320" as="targetPoint" />
          </mxGeometry>
        </mxCell>
        <mxCell id="Rqpb-CLD3I6wGEN1D-v1-7" value="" style="endArrow=diamondThin;endFill=1;endSize=24;html=1;rounded=0;exitX=1;exitY=1;exitDx=0;exitDy=0;entryX=0;entryY=0.25;entryDx=0;entryDy=0;" parent="1" source="node9" target="node3" edge="1">
          <mxGeometry width="160" relative="1" as="geometry">
            <mxPoint x="-120" y="190" as="sourcePoint" />
            <mxPoint x="40" y="190" as="targetPoint" />
          </mxGeometry>
        </mxCell>
        <mxCell id="Rqpb-CLD3I6wGEN1D-v1-9" value="" style="endArrow=none;html=1;rounded=0;exitX=1;exitY=0.5;exitDx=0;exitDy=0;entryX=0;entryY=0.25;entryDx=0;entryDy=0;" parent="1" source="1nAkwuaW9sIehE2Wec23-7" target="node9" edge="1">
          <mxGeometry relative="1" as="geometry">
            <mxPoint x="-670" y="-160" as="sourcePoint" />
            <mxPoint x="-510" y="-160" as="targetPoint" />
          </mxGeometry>
        </mxCell>
        <mxCell id="Rqpb-CLD3I6wGEN1D-v1-10" value="" style="endArrow=diamondThin;endFill=1;endSize=24;html=1;rounded=0;exitX=1;exitY=0.25;exitDx=0;exitDy=0;entryX=0;entryY=1;entryDx=0;entryDy=0;" parent="1" source="node1" target="node3" edge="1">
          <mxGeometry width="160" relative="1" as="geometry">
            <mxPoint x="-290" y="200" as="sourcePoint" />
            <mxPoint x="-130" y="200" as="targetPoint" />
          </mxGeometry>
        </mxCell>
        <mxCell id="Rqpb-CLD3I6wGEN1D-v1-11" value="" style="endArrow=diamondThin;endFill=1;endSize=24;html=1;rounded=0;exitX=1;exitY=0.25;exitDx=0;exitDy=0;entryX=0;entryY=0.75;entryDx=0;entryDy=0;" parent="1" source="node16" target="node3" edge="1">
          <mxGeometry width="160" relative="1" as="geometry">
            <mxPoint x="-900" y="260" as="sourcePoint" />
            <mxPoint x="-200" y="90" as="targetPoint" />
          </mxGeometry>
        </mxCell>
        <mxCell id="Rqpb-CLD3I6wGEN1D-v1-12" value="" style="endArrow=diamondThin;endFill=1;endSize=24;html=1;rounded=0;exitX=1;exitY=0.5;exitDx=0;exitDy=0;entryX=0;entryY=0.5;entryDx=0;entryDy=0;" parent="1" source="1nAkwuaW9sIehE2Wec23-1" target="node3" edge="1">
          <mxGeometry width="160" relative="1" as="geometry">
            <mxPoint x="-560" y="260" as="sourcePoint" />
            <mxPoint x="-400" y="260" as="targetPoint" />
          </mxGeometry>
        </mxCell>
      </root>
    </mxGraphModel>
  </diagram>
</mxfile>
